<svg width="181" height="261" viewBox="0 0 181 261" fill="none" xmlns="http://www.w3.org/2000/svg">
<rect width="181" height="261" fill="#382B2B"/>
<rect x="11" y="10" width="161" height="226" fill="white"/>
<path d="M116.808 201L147.308 212.5L146.308 235.5H127.808L122.308 218L116.808 201Z" fill="#272D22"/>
<path d="M32.5716 106.778C32.5716 91.273 29.5715 77.2776 28.0715 68.2776C26.7716 60.4777 43.5713 52.2776 47.5716 60.2776C53.6175 72.3685 41.0716 68.2692 41.0716 86.7776C41.0716 100.278 48.5713 115.778 48.5713 115.778C48.5713 115.778 80.5597 118.2 97.0716 128.778C105.92 134.446 109.571 152.778 109.571 152.778C109.571 152.778 65.0056 164.329 41.0716 146.778C26.0716 135.778 32.5716 122.278 32.5716 106.778Z" fill="#EFEEE6"/>
<path d="M92.1484 9.00002L172.148 9V89C172.148 89 142.648 92.4999 115.648 69.5C88.6484 46.5001 92.1484 9.00002 92.1484 9.00002Z" fill="#CE0000"/>
<path d="M62.9979 56.9125L48.3214 65.4939L46.3687 60.4492L62.9979 56.9125Z" fill="#F8DC2A"/>
<path d="M29.5 66C29.5 66 33.1975 61.8236 35.5 60.5C37.5455 59.3242 41 59 41 59C41 59 41.5634 59 42 59C42.4366 59 43 59 43 59C43 59 38.2616 60.502 36 62C34.5996 62.9275 33.5 64.5 33.5 64.5L29.5 66Z" fill="#D2382D"/>
<path d="M100 125.5C100 125.5 115.601 129.786 120.222 137.24C125.603 145.919 120.613 163.579 120.613 163.579L100 125.5Z" fill="#1C1C1C"/>
<path d="M36.2412 59.2656C38.4002 58.3021 40.6531 57.8406 42.5439 58.0498C44.4008 58.2554 45.8601 59.0917 46.6768 60.7246C48.1468 63.6645 48.388 65.4322 48.127 66.7178C47.8604 68.03 47.0458 69.0403 45.8271 70.4736C44.638 71.8723 43.1715 73.5684 42.0254 76.1191C40.8768 78.6754 40.0713 82.0329 40.0713 86.7773C40.0713 93.6875 41.9861 101.058 43.874 106.659C44.821 109.469 45.7678 111.852 46.4785 113.534C46.8339 114.375 47.1304 115.042 47.3389 115.5C47.443 115.729 47.5255 115.905 47.582 116.025C47.6103 116.085 47.6325 116.132 47.6475 116.163C47.6549 116.179 47.6601 116.191 47.6641 116.199C47.666 116.203 47.6678 116.207 47.6689 116.209C47.6695 116.21 47.6706 116.211 47.6709 116.212V116.213L47.9219 116.731L48.4961 116.774H48.4971C48.4978 116.774 48.4987 116.775 48.5 116.775C48.5035 116.776 48.5093 116.776 48.5166 116.776C48.5312 116.778 48.5535 116.779 48.583 116.781C48.6425 116.786 48.7321 116.794 48.8496 116.804C49.0846 116.824 49.433 116.854 49.8828 116.897C50.7825 116.984 52.0885 117.119 53.708 117.314C56.9479 117.705 61.4389 118.334 66.4414 119.293C76.4838 121.217 88.4472 124.441 96.5322 129.62C98.5739 130.928 100.368 133.003 101.912 135.452C103.452 137.894 104.71 140.652 105.705 143.26C106.699 145.864 107.422 148.299 107.896 150.082C108.108 150.878 108.268 151.543 108.382 152.034C108.108 152.098 107.777 152.178 107.393 152.264C106.14 152.542 104.319 152.922 102.059 153.323C97.5365 154.127 91.2616 155.016 84.248 155.36C70.1645 156.052 53.339 154.533 41.6631 145.971C38.0243 143.302 35.7317 140.516 34.3125 137.626C32.8915 134.732 32.3177 131.676 32.1963 128.428C32.0743 125.166 32.4091 121.75 32.7852 118.123C33.1589 114.518 33.5713 110.714 33.5713 106.777C33.5713 91.1669 30.5489 77.0612 29.0576 68.1133C28.798 66.5554 29.426 64.8664 30.7744 63.2529C32.1158 61.6479 34.0875 60.2268 36.2412 59.2656Z" stroke="#1C1C1C" stroke-width="2"/>
<path d="M57.2489 118.904C61.8596 113.645 69.4141 112.154 76.8774 112.725C84.3378 113.296 91.367 115.906 94.655 118.432C95.0958 118.771 95.7919 119.597 96.7064 120.92C97.5975 122.209 98.6319 123.873 99.7535 125.789C101.996 129.619 104.558 134.404 106.982 139.09C109.405 143.772 111.685 148.345 113.359 151.748C114.195 153.45 114.88 154.858 115.356 155.841C115.389 155.909 115.422 155.976 115.453 156.041C115.367 156.046 115.277 156.052 115.184 156.058C114.062 156.123 112.447 156.211 110.481 156.302C106.547 156.485 101.206 156.68 95.5762 156.729C89.9429 156.778 84.0362 156.681 78.9648 156.284C76.4291 156.085 74.117 155.813 72.1601 155.449C70.1888 155.084 68.6385 154.637 67.5917 154.116C62.4835 151.572 57.5288 145.401 55.0601 138.443C52.5925 131.488 52.7135 124.076 57.2489 118.904Z" fill="#EFEEE6" stroke="#1C1C1C" stroke-width="2"/>
<path d="M45.9996 59.9999L65 56L48.5 66" stroke="#1C1C1C"/>
<ellipse cx="41.6264" cy="62.1251" rx="1.68223" ry="1.03753" transform="rotate(-29.7565 41.6264 62.1251)" fill="black"/>
<path d="M40.4589 70.5C43.3343 67.5766 47.5 67.5 47.5 67.5C47.5 67.5 40.4589 72.4999 40.4589 88.9999C40.4589 100.271 47.4589 117 47.4589 117C47.4589 117 40.1875 109.276 39 103C35.5 84.5 37.9999 73 40.4589 70.5Z" fill="#1C1C1C"/>
<path d="M64.9642 159.594L64.9549 159.625C64.9471 159.65 64.9351 159.689 64.9192 159.74C64.8871 159.842 64.839 159.993 64.775 160.186C64.6467 160.572 64.4552 161.123 64.2062 161.782C63.7068 163.103 62.9806 164.836 62.0658 166.511C61.1438 168.2 60.0659 169.764 58.8875 170.803C57.7174 171.834 56.5747 172.248 55.4178 171.965C54.245 171.678 53.454 170.771 52.959 169.274C52.459 167.761 52.3274 165.81 52.4019 163.816C52.4759 161.838 52.7487 159.897 53.0054 158.444C53.1334 157.719 53.2568 157.119 53.3477 156.703C53.393 156.495 53.4304 156.333 53.456 156.223C53.4688 156.169 53.4785 156.128 53.485 156.101C53.4883 156.087 53.4907 156.077 53.4922 156.07L53.4945 156.063L53.497 156.051L53.5001 156.041L54.2139 152.877C54.601 153.034 55.0688 153.222 55.5849 153.42C56.9898 153.96 58.7876 154.603 60.2582 154.97C61.7746 155.349 63.6123 155.476 65.0291 155.513C65.4401 155.524 65.8219 155.527 66.1567 155.526L64.9642 159.594Z" fill="#EFEEE6" stroke="#1C1C1C" stroke-width="2"/>
<path d="M63.0396 156.029C64.3008 155.978 66.2107 155.944 68.7822 156.013C71.3796 156.082 73.2432 156.117 74.4588 156.134C74.794 156.139 75.0803 156.141 75.3188 156.143L75.5026 158.575L75.5061 158.612L75.5114 158.647L75.5116 158.651C75.5122 158.655 75.5127 158.661 75.5139 158.67C75.5164 158.688 75.5206 158.716 75.5255 158.754C75.5351 158.829 75.5484 158.942 75.5638 159.088C75.5946 159.38 75.6323 159.801 75.6567 160.311C75.7057 161.335 75.7016 162.69 75.4999 164.055C75.2965 165.43 74.9026 166.737 74.2271 167.724C73.5756 168.675 72.6556 169.345 71.2796 169.507C68.484 169.836 66.3646 167.652 64.8337 164.847C64.0956 163.494 63.5586 162.106 63.2054 161.049C63.0295 160.522 62.9008 160.082 62.8165 159.776C62.7745 159.624 62.7433 159.505 62.7232 159.426L62.7015 159.336L62.2241 156.069C62.4565 156.056 62.7283 156.042 63.0396 156.029Z" fill="#EFEEE6" stroke="#1C1C1C" stroke-width="2"/>
<path d="M55 172L49 218" stroke="#1C1C1C" stroke-width="2"/>
<path d="M71.5412 169L78 216.5" stroke="#1C1C1C" stroke-width="2"/>
<path d="M45.0536 224.236L48 217.5L50 218L45.0536 224.236Z" fill="#1C1C1C"/>
<path d="M42.5 222.5L48 217L49 218.5L42.5 222.5Z" fill="#1C1C1C"/>
<path d="M49.5 217.5H50.5L54 222.5L49.5 218.5V217.5Z" fill="#1C1C1C"/>
<path d="M74.5535 222.955L77.5 216.219L79.5 217L74.5535 222.955Z" fill="#1C1C1C"/>
<path d="M72 221.219L77.5 215.719L78.4999 217.219L72 221.219Z" fill="#1C1C1C"/>
<path d="M78.5 215.5H80L83.4999 221.219L78 217L78.5 215.5Z" fill="#1C1C1C"/>
<path d="M74 186.5L77.605 191.42L75.5 196.5L72 192.185L74 186.5Z" fill="#1C1C1C"/>
<path d="M52.7683 188L55 193L52 198L49.5 192.5L52.7683 188Z" fill="#1C1C1C"/>
<path d="M166.5 125.927C168.139 124.03 169.268 123.931 169.818 124.024C170.13 124.078 170.379 124.211 170.556 124.338V235.897H146.369C146.289 235.433 146.185 234.732 146.09 233.754C145.884 231.631 145.712 228.205 145.867 223.053C146.178 212.745 147.795 195.55 153.038 168.086C155.658 154.363 158.179 144.788 160.478 138.146C162.783 131.489 164.842 127.847 166.5 125.927Z" fill="#272D22" stroke="#1C1C1C" stroke-width="2"/>
<rect x="164.808" y="116" width="6" height="11" fill="#F8DC2A" stroke="#1C1C1C" stroke-width="2"/>
<rect x="113.256" y="199.108" width="2.30076" height="4.61516" transform="rotate(-45.7999 113.256 199.108)" fill="#F8DC2A" stroke="#1C1C1C"/>
<path d="M168.308 128.009C168.308 128.009 165.183 160.874 164.808 182C164.44 202.703 166.308 235 166.308 235" stroke="#1C1C1C" stroke-width="2"/>
<path d="M168.308 128C168.308 128 167.452 161.374 167.827 182.5C168.195 203.203 167.308 234 167.308 234" stroke="#1C1C1C" stroke-width="2"/>
<path d="M161.308 134C161.308 134 162.808 136.893 163.808 137.5C165.621 138.602 166.808 138.5 166.808 138.5" stroke="#1C1C1C" stroke-width="2"/>
<path d="M159.343 141.5C159.343 141.5 159.338 144 161.808 145.5C164.277 147 166.808 147 166.808 147" stroke="#1C1C1C" stroke-width="2"/>
<path d="M156.308 152C156.308 152 157.015 154.5 160.308 156.5C163.601 158.5 165.308 158 165.308 158" stroke="#1C1C1C" stroke-width="2"/>
<path d="M154.292 161.5C154.292 161.5 154.808 165 158.808 167C162.808 169 164.808 168 164.808 168" stroke="#1C1C1C" stroke-width="2"/>
<path d="M152.645 169.008C152.645 169.008 152.661 172.426 157.808 175C162.955 177.574 165.308 176 165.308 176" stroke="#1C1C1C" stroke-width="2"/>
<path d="M150.808 179.5C150.808 179.5 151.808 183 156.308 185C160.808 187 164.308 186.5 164.308 186.5" stroke="#1C1C1C" stroke-width="2"/>
<path d="M151.363 175.25C151.363 175.25 152.363 178.75 156.863 180.75C161.363 182.75 164.863 182.25 164.863 182.25" stroke="#1C1C1C" stroke-width="2"/>
<path d="M155.363 156.25C155.363 156.25 156.308 160.417 159.308 161.75C162.308 163.083 165.808 162.5 165.808 162.5" stroke="#1C1C1C" stroke-width="2"/>
<path d="M157.308 147.5C157.308 147.5 158.808 150 161.308 151.5C163.808 153 166.308 153 166.308 153" stroke="#1C1C1C" stroke-width="2"/>
<path d="M149.363 187.25C149.363 187.25 151.308 190.5 155.808 192.5C160.308 194.5 164.308 194.5 164.308 194.5" stroke="#1C1C1C" stroke-width="2"/>
<path d="M148.978 194.847C148.978 194.847 150.016 197.694 155.423 200.097C160.829 202.5 164.808 202 164.808 202" stroke="#1C1C1C" stroke-width="2"/>
<path d="M148.078 202.338C148.078 202.338 149.902 205.597 155.308 208C160.714 210.403 164.808 209.5 164.808 209.5" stroke="#1C1C1C" stroke-width="2"/>
<path d="M146.979 209.784C146.979 209.784 146.611 212.892 154.209 215.446C161.808 218 164.808 217 164.808 217" stroke="#1C1C1C" stroke-width="2"/>
<path d="M146.308 219C146.308 219 146.023 222.414 153.622 224.968C161.22 227.522 165.308 227 165.308 227" stroke="#1C1C1C" stroke-width="2"/>
<path d="M146.308 235L117.308 202" stroke="#1C1C1C" stroke-width="2"/>
<path d="M157.314 216.717L117.808 201.5" stroke="#1C1C1C" stroke-width="2"/>
<path d="M128.308 235.5L117.411 202" stroke="#1C1C1C" stroke-width="2"/>
<path d="M122.531 207.584C122.531 207.584 124.16 207.65 124.808 207C126.127 205.677 125.308 204.5 125.308 204.5" stroke="#1C1C1C"/>
<path d="M121.377 212.084C121.377 212.084 123.006 212.15 123.654 211.5C124.974 210.177 124.154 209 124.154 209" stroke="#1C1C1C"/>
<path d="M122.377 216.084C122.377 216.084 123.308 217 125.308 216C126.979 215.164 126.808 213 126.808 213" stroke="#1C1C1C"/>
<path d="M123.868 221.084C123.868 221.084 125.947 221.24 127.808 220C129.308 219 129.308 217 129.308 217" stroke="#1C1C1C"/>
<path d="M124.019 224.084C124.019 224.084 127.947 224.24 129.808 223C131.308 222 131.808 219 131.808 219" stroke="#1C1C1C"/>
<path d="M125.808 227.159C125.808 227.159 128.808 228 131.597 226.075C134.407 224.136 133.808 221.5 133.808 221.5" stroke="#1C1C1C"/>
<path d="M126.958 231.659C126.958 231.659 130.369 232.226 133.843 229.845C137.343 227.445 136.939 224.679 136.939 224.679" stroke="#1C1C1C"/>
<path d="M129.958 234.98C129.958 234.98 133.369 235.547 136.843 233.166C140.343 230.766 139.939 228 139.939 228" stroke="#1C1C1C"/>
<path d="M126.377 212.084C126.377 212.084 128.308 212.5 130.337 210.378C132.771 207.833 132.205 206.966 132.205 206.966" stroke="#1C1C1C"/>
<path d="M129.377 215.118C129.377 215.118 132.006 214.517 133.337 213.412C136.047 211.162 135.308 208.5 135.308 208.5" stroke="#1C1C1C"/>
<path d="M133.037 218.618C133.037 218.618 135.667 218.017 136.998 216.912C139.707 214.662 139.308 210 139.308 210" stroke="#1C1C1C"/>
<path d="M134.856 222.618C134.856 222.618 138.808 221 140.808 218.5C142.808 216 142.808 211.5 142.808 211.5" stroke="#1C1C1C"/>
<path d="M137.493 226.118C137.493 226.118 141.444 224.5 143.444 222C145.444 219.5 145.444 215 145.444 215" stroke="#1C1C1C"/>
<path d="M140.308 228C140.308 228 143.6 227.938 145.308 225C147.016 222.063 146.308 219 146.308 219" stroke="#1C1C1C"/>
<path d="M124.377 209.627C124.377 209.627 126.808 209.5 127.931 208.192C129.25 206.656 129.308 205.5 129.308 205.5" stroke="#1C1C1C"/>
<path d="M145.808 235H127.237" stroke="#1C1C1C" stroke-width="2"/>
<rect x="114" y="236" width="61" height="18" fill="#382B2B"/>
<rect x="171" y="107" width="7" height="129" fill="#382B2B"/>
<path d="M64.5243 247.273H66.8596V253.256C66.8567 253.824 66.7132 254.324 66.4292 254.756C66.1479 255.185 65.7587 255.52 65.2615 255.761C64.7672 256 64.1976 256.119 63.5527 256.119C62.9931 256.119 62.4817 256.023 62.0186 255.83C61.5556 255.634 61.1863 255.327 60.9107 254.909C60.6351 254.489 60.4988 253.943 60.5016 253.273H62.8709C62.8794 253.491 62.9164 253.676 62.9817 253.827C63.0499 253.977 63.1436 254.091 63.263 254.168C63.3851 254.241 63.5328 254.278 63.7061 254.278C63.8823 254.278 64.03 254.24 64.1493 254.163C64.2715 254.087 64.3638 253.973 64.4263 253.822C64.4888 253.669 64.5215 253.48 64.5243 253.256V247.273ZM70.2495 256H67.6926L70.5733 247.273H73.812L76.6926 256H74.1358L72.2267 249.676H72.1586L70.2495 256ZM69.7722 252.557H74.579V254.33H69.7722V252.557ZM85.0843 247.273V256H83.1071L79.9537 251.415H79.9025V256H77.5332V247.273H79.5446L82.6468 251.841H82.715V247.273H85.0843ZM91.3699 247.273H93.7392V252.864C93.7392 253.528 93.5801 254.104 93.2619 254.589C92.9466 255.072 92.5062 255.446 91.9409 255.71C91.3755 255.972 90.7193 256.102 89.9721 256.102C89.2193 256.102 88.5602 255.972 87.9949 255.71C87.4295 255.446 86.9892 255.072 86.6738 254.589C86.3613 254.104 86.2051 253.528 86.2051 252.864V247.273H88.5744V252.659C88.5744 252.929 88.6341 253.17 88.7534 253.384C88.8727 253.594 89.0375 253.759 89.2477 253.878C89.4608 253.997 89.7022 254.057 89.9721 254.057C90.2449 254.057 90.4863 253.997 90.6966 253.878C90.9068 253.759 91.0716 253.594 91.1909 253.384C91.3102 253.17 91.3699 252.929 91.3699 252.659V247.273ZM97.1323 256H94.5755L97.4561 247.273H100.695L103.575 256H101.019L99.1096 249.676H99.0414L97.1323 256ZM96.655 252.557H101.462V254.33H96.655V252.557ZM104.416 256V247.273H108.183C108.831 247.273 109.398 247.391 109.883 247.626C110.369 247.862 110.747 248.202 111.017 248.645C111.287 249.088 111.422 249.619 111.422 250.239C111.422 250.864 111.282 251.391 111.004 251.82C110.729 252.249 110.341 252.572 109.841 252.791C109.344 253.01 108.763 253.119 108.098 253.119H105.848V251.278H107.621C107.899 251.278 108.136 251.244 108.332 251.176C108.531 251.105 108.683 250.993 108.788 250.839C108.896 250.686 108.95 250.486 108.95 250.239C108.95 249.989 108.896 249.786 108.788 249.629C108.683 249.47 108.531 249.354 108.332 249.28C108.136 249.203 107.899 249.165 107.621 249.165H106.785V256H104.416ZM109.53 251.994L111.711 256H109.138L107.007 251.994H109.53ZM111.664 247.273H114.306L116.01 250.818H116.078L117.783 247.273H120.425L117.22 253.256V256H114.868V253.256L111.664 247.273Z" fill="white"/>
<path d="M38.4277 235H11V205.222L66.79 186.782L38.4277 235Z" fill="#272D22" stroke="#1C1C1C" stroke-width="2"/>
<path d="M11.3425 234.247L65.5 187.5" stroke="#1C1C1C" stroke-width="2"/>
<path d="M53.6866 191.467C53.6866 191.467 53.2993 193.394 53.9557 194.279C55.2916 196.08 56.8569 195.311 56.8569 195.311" stroke="#1C1C1C"/>
<path d="M48.8817 192.527C48.8817 192.527 48.7816 195.069 49.6341 196.374C51.3691 199.031 52.9281 198.248 52.9281 198.248" stroke="#1C1C1C"/>
<path d="M43.8817 193.527C43.8817 193.527 44.1643 196.889 45.2779 198.754C47.5444 202.549 49.095 201.748 49.095 201.748" stroke="#1C1C1C"/>
<path d="M39.8817 195.527C39.8817 195.527 40.3257 199.235 41.5495 201.336C44.0402 205.611 45.5872 204.803 45.5872 204.803" stroke="#1C1C1C"/>
<path d="M34.8817 197.527C34.8817 197.527 35.5803 201.78 36.9778 204.253C39.8221 209.286 41.3635 208.466 41.3635 208.466" stroke="#1C1C1C"/>
<path d="M28.8817 199.527C28.8817 199.527 29.8529 204.365 31.4365 207.236C34.6596 213.081 36.195 212.248 36.195 212.248" stroke="#1C1C1C" stroke-width="2"/>
<path d="M22.8817 201.527C22.8817 201.527 24.2808 207.281 26.1564 210.779C29.9738 217.897 31.4998 217.043 31.4998 217.043" stroke="#1C1C1C" stroke-width="2"/>
<path d="M32 217C32 217 33.6004 221.81 36.7405 223.588C41 226 45 224 45 224" stroke="#1C1C1C" stroke-width="2"/>
<path d="M16.8817 202.527C16.8817 202.527 16.8188 209.348 19 213.5C23.4392 221.95 26.8649 220.968 26.8649 220.968" stroke="#1C1C1C" stroke-width="2"/>
<path d="M11.5 206.5C11.5 206.5 11.4137 215.348 13.5948 219.5C15.5 223.127 19.5 227 19.5 227" stroke="#1C1C1C" stroke-width="2"/>
<path d="M20.5 226C20.5 226 22.2405 231.037 26.5 233C30.2205 234.714 38 234.5 38 234.5" stroke="#1C1C1C" stroke-width="2"/>
<path d="M27.0001 221.5C27.0001 221.5 29.3859 226.039 32 228C36 231 42 229 42 229" stroke="#1C1C1C" stroke-width="2"/>
<path d="M35.2774 213.584C35.2774 213.584 38.0702 217.107 40.5 218.5C42.8039 219.821 47 220.5 47 220.5" stroke="#1C1C1C"/>
<path d="M39.6717 209.622C39.6717 209.622 41.0702 213.607 43.5 215C45.804 216.321 49.5 216 49.5 216" stroke="#1C1C1C"/>
<path d="M42.3095 206.121C42.3095 206.121 43.708 210.105 46.1378 211.498C48.4418 212.82 52.1378 212.498 52.1378 212.498" stroke="#1C1C1C"/>
<path d="M46.5 203.5C46.5 203.5 46.7592 206.319 49 208C51 209.5 54 209.5 54 209.5" stroke="#1C1C1C"/>
<path d="M49.9598 200.432C49.9598 200.432 50.0411 203.132 52.0023 204.627C53.7527 205.96 56.5032 205.794 56.5032 205.794" stroke="#1C1C1C"/>
<path d="M54.0926 196.52C54.0926 196.52 53.9057 199.042 55.4453 200.255C56.8196 201.338 59.1938 200.921 59.1938 200.921" stroke="#1C1C1C"/>
<rect x="66.4996" y="189.074" width="3.11657" height="6.62969" transform="rotate(-125.336 66.4996 189.074)" fill="#F8DC2A" stroke="#1C1C1C"/>
</svg>
