<svg width="34" height="39" viewBox="0 0 34 39" fill="none" xmlns="http://www.w3.org/2000/svg">
<path d="M18.7041 12.7705L18.4375 14.7051L20.1631 13.79L32.9453 7.00977C32.9553 7.1824 32.9678 7.36847 32.9756 7.56738C33.0256 8.84699 33.0165 10.6433 32.7803 12.6992C32.3062 16.8263 30.9275 21.9106 27.3672 25.998C23.8164 30.0744 17.0783 33.0934 11.0479 35.1025C8.0632 36.0969 5.30721 36.8266 3.29688 37.3076C2.42213 37.5169 1.68881 37.676 1.1416 37.792C1.10756 37.2244 1.06802 36.4617 1.04004 35.5508C0.976411 33.4794 0.966433 30.6512 1.17969 27.6162C1.3933 24.5762 1.82865 21.3582 2.64453 18.4971C3.4653 15.6188 4.64211 13.2067 6.26562 11.6689C9.82293 8.29985 13.7344 5.60445 16.7656 3.74902C18.1407 2.90733 19.3306 2.24139 20.2178 1.76562L18.7041 12.7705Z" fill="#FFC7C7" stroke="black" stroke-width="2"/>
</svg>
