<svg width="2366" height="1349" viewBox="0 0 2366 1349" fill="none" xmlns="http://www.w3.org/2000/svg">
<g clip-path="url(#clip0_112_2)">
<rect width="2366" height="1349" fill="white"/>
<rect x="2361.42" y="114.417" width="220.833" height="220.833" fill="#DDE9BE" stroke="#494338" stroke-width="4"/>
<rect x="2361.42" y="339.25" width="333.25" height="108.417" fill="#DDE9BE" stroke="#494338" stroke-width="4"/>
<rect x="2249" y="2" width="333.25" height="108.417" fill="#DDE9BE" stroke="#494338" stroke-width="4"/>
<rect x="2357.42" y="114.417" width="333.25" height="108.417" transform="rotate(90 2357.42 114.417)" fill="#DDE9BE" stroke="#494338" stroke-width="4"/>
<rect x="2361.42" y="564.083" width="220.833" height="220.833" fill="#DDE9BE" stroke="#494338" stroke-width="4"/>
<rect x="2361.42" y="788.917" width="333.25" height="108.417" fill="#DDE9BE" stroke="#494338" stroke-width="4"/>
<rect x="2249" y="451.667" width="333.25" height="108.417" fill="#DDE9BE" stroke="#494338" stroke-width="4"/>
<rect x="2357.42" y="564.083" width="333.25" height="108.417" transform="rotate(90 2357.42 564.083)" fill="#DDE9BE" stroke="#494338" stroke-width="4"/>
<rect x="2361.42" y="1013.42" width="220.833" height="220.833" fill="#DDE9BE" stroke="#494338" stroke-width="4"/>
<rect x="2361.42" y="1238.25" width="333.25" height="108.417" fill="#DDE9BE" stroke="#494338" stroke-width="4"/>
<rect x="2249" y="901" width="333.25" height="108.417" fill="#DDE9BE" stroke="#494338" stroke-width="4"/>
<rect x="2357.42" y="1013.42" width="333.25" height="108.417" transform="rotate(90 2357.42 1013.42)" fill="#DDE9BE" stroke="#494338" stroke-width="4"/>
<rect x="2249" y="1350.67" width="333.25" height="108.417" fill="#DDE9BE" stroke="#494338" stroke-width="4"/>
<rect x="114.417" y="114.417" width="220.833" height="220.833" fill="#DDE9BE" stroke="#494338" stroke-width="4"/>
<rect x="114.417" y="339.25" width="333.25" height="108.417" fill="#DDE9BE" stroke="#494338" stroke-width="4"/>
<rect x="2" y="2" width="333.25" height="108.417" fill="#DDE9BE" stroke="#494338" stroke-width="4"/>
<rect x="447.667" y="2" width="333.25" height="108.417" transform="rotate(90 447.667 2)" fill="#DDE9BE" stroke="#494338" stroke-width="4"/>
<rect x="110.417" y="114.417" width="333.25" height="108.417" transform="rotate(90 110.417 114.417)" fill="#DDE9BE" stroke="#494338" stroke-width="4"/>
<rect x="1913.08" y="1013.75" width="220.833" height="220.833" fill="#DDE9BE" stroke="#494338" stroke-width="4"/>
<rect x="1913.08" y="1238.58" width="333.25" height="108.417" fill="#DDE9BE" stroke="#494338" stroke-width="4"/>
<rect x="1800.67" y="901.333" width="333.25" height="108.417" fill="#DDE9BE" stroke="#494338" stroke-width="4"/>
<rect x="2246.33" y="901.333" width="333.25" height="108.417" transform="rotate(90 2246.33 901.333)" fill="#DDE9BE" stroke="#494338" stroke-width="4"/>
<rect x="1909.08" y="1013.75" width="333.25" height="108.417" transform="rotate(90 1909.08 1013.75)" fill="#DDE9BE" stroke="#494338" stroke-width="4"/>
<rect x="1913.08" y="114.417" width="220.833" height="220.833" fill="#DDE9BE" stroke="#494338" stroke-width="4"/>
<rect x="1913.08" y="339.25" width="333.25" height="108.417" fill="#DDE9BE" stroke="#494338" stroke-width="4"/>
<rect x="1800.67" y="2" width="333.25" height="108.417" fill="#DDE9BE" stroke="#494338" stroke-width="4"/>
<rect x="2246.33" y="2" width="333.25" height="108.417" transform="rotate(90 2246.33 2)" fill="#DDE9BE" stroke="#494338" stroke-width="4"/>
<rect x="1909.08" y="114.417" width="333.25" height="108.417" transform="rotate(90 1909.08 114.417)" fill="#DDE9BE" stroke="#494338" stroke-width="4"/>
<rect x="1913.08" y="564.083" width="220.833" height="220.833" fill="#DDE9BE" stroke="#494338" stroke-width="4"/>
<rect x="1913.08" y="788.917" width="333.25" height="108.417" fill="#DDE9BE" stroke="#494338" stroke-width="4"/>
<rect x="1800.67" y="451.667" width="333.25" height="108.417" fill="#DDE9BE" stroke="#494338" stroke-width="4"/>
<rect x="2246.33" y="451.667" width="333.25" height="108.417" transform="rotate(90 2246.33 451.667)" fill="#DDE9BE" stroke="#494338" stroke-width="4"/>
<rect x="1909.08" y="564.083" width="333.25" height="108.417" transform="rotate(90 1909.08 564.083)" fill="#DDE9BE" stroke="#494338" stroke-width="4"/>
<rect x="1463.42" y="1013.75" width="220.833" height="220.833" fill="#DDE9BE" stroke="#494338" stroke-width="4"/>
<rect x="1463.42" y="1238.58" width="333.25" height="108.417" fill="#DDE9BE" stroke="#494338" stroke-width="4"/>
<rect x="1351" y="901.333" width="333.25" height="108.417" fill="#DDE9BE" stroke="#494338" stroke-width="4"/>
<rect x="1796.67" y="901.333" width="333.25" height="108.417" transform="rotate(90 1796.67 901.333)" fill="#DDE9BE" stroke="#494338" stroke-width="4"/>
<rect x="1459.42" y="1013.75" width="333.25" height="108.417" transform="rotate(90 1459.42 1013.75)" fill="#DDE9BE" stroke="#494338" stroke-width="4"/>
<rect x="1463.42" y="564.083" width="220.833" height="220.833" fill="#DDE9BE" stroke="#494338" stroke-width="4"/>
<rect x="1463.42" y="788.917" width="333.25" height="108.417" fill="#DDE9BE" stroke="#494338" stroke-width="4"/>
<rect x="1351" y="451.667" width="333.25" height="108.417" fill="#DDE9BE" stroke="#494338" stroke-width="4"/>
<rect x="1796.67" y="451.667" width="333.25" height="108.417" transform="rotate(90 1796.67 451.667)" fill="#DDE9BE" stroke="#494338" stroke-width="4"/>
<rect x="1459.42" y="564.083" width="333.25" height="108.417" transform="rotate(90 1459.42 564.083)" fill="#DDE9BE" stroke="#494338" stroke-width="4"/>
<rect x="1463.42" y="114.417" width="220.833" height="220.833" fill="#DDE9BE" stroke="#494338" stroke-width="4"/>
<rect x="1463.42" y="339.25" width="333.25" height="108.417" fill="#DDE9BE" stroke="#494338" stroke-width="4"/>
<rect x="1351" y="2" width="333.25" height="108.417" fill="#DDE9BE" stroke="#494338" stroke-width="4"/>
<rect x="1796.67" y="2" width="333.25" height="108.417" transform="rotate(90 1796.67 2)" fill="#DDE9BE" stroke="#494338" stroke-width="4"/>
<rect x="1459.42" y="114.417" width="333.25" height="108.417" transform="rotate(90 1459.42 114.417)" fill="#DDE9BE" stroke="#494338" stroke-width="4"/>
<rect x="1013.75" y="1013.75" width="220.833" height="220.833" fill="#DDE9BE" stroke="#494338" stroke-width="4"/>
<rect x="1013.75" y="1238.58" width="333.25" height="108.417" fill="#DDE9BE" stroke="#494338" stroke-width="4"/>
<rect x="901.333" y="901.333" width="333.25" height="108.417" fill="#DDE9BE" stroke="#494338" stroke-width="4"/>
<rect x="1347" y="901.333" width="333.25" height="108.417" transform="rotate(90 1347 901.333)" fill="#DDE9BE" stroke="#494338" stroke-width="4"/>
<rect x="1009.75" y="1013.75" width="333.25" height="108.417" transform="matrix(0 1 -1 0 2023.5 4)" fill="#DDE9BE" stroke="#494338" stroke-width="4"/>
<rect x="1013.75" y="564.083" width="220.833" height="220.833" fill="#DDE9BE" stroke="#494338" stroke-width="4"/>
<rect x="1013.75" y="788.917" width="333.25" height="108.417" fill="#DDE9BE" stroke="#494338" stroke-width="4"/>
<rect x="901.333" y="451.667" width="333.25" height="108.417" fill="#DDE9BE" stroke="#494338" stroke-width="4"/>
<rect x="1347" y="451.667" width="333.25" height="108.417" transform="rotate(90 1347 451.667)" fill="#DDE9BE" stroke="#494338" stroke-width="4"/>
<rect x="1009.75" y="564.083" width="333.25" height="108.417" transform="rotate(90 1009.75 564.083)" fill="#DDE9BE" stroke="#494338" stroke-width="4"/>
<rect x="1234.58" y="335.25" width="220.833" height="220.833" transform="rotate(180 1234.58 335.25)" fill="#DDE9BE" stroke="#494338" stroke-width="4"/>
<rect x="1234.58" y="110.417" width="333.25" height="108.417" transform="rotate(180 1234.58 110.417)" fill="#DDE9BE" stroke="#494338" stroke-width="4"/>
<rect x="1347" y="447.667" width="333.25" height="108.417" transform="rotate(180 1347 447.667)" fill="#DDE9BE" stroke="#494338" stroke-width="4"/>
<rect x="901.333" y="447.667" width="333.25" height="108.417" transform="rotate(-90 901.333 447.667)" fill="#DDE9BE" stroke="#494338" stroke-width="4"/>
<rect x="1238.58" y="335.25" width="333.25" height="108.417" transform="rotate(-90 1238.58 335.25)" fill="#DDE9BE" stroke="#494338" stroke-width="4"/>
<rect x="564.084" y="1013.75" width="220.833" height="220.833" fill="#DDE9BE" stroke="#494338" stroke-width="4"/>
<rect x="564.084" y="1238.58" width="333.25" height="108.417" fill="#DDE9BE" stroke="#494338" stroke-width="4"/>
<rect x="451.667" y="901.333" width="333.25" height="108.417" fill="#DDE9BE" stroke="#494338" stroke-width="4"/>
<rect x="897.334" y="901.333" width="333.25" height="108.417" transform="rotate(90 897.334 901.333)" fill="#DDE9BE" stroke="#494338" stroke-width="4"/>
<rect x="560.084" y="1013.75" width="333.25" height="108.417" transform="rotate(90 560.084 1013.75)" fill="#DDE9BE" stroke="#494338" stroke-width="4"/>
<rect x="564.084" y="564.083" width="220.833" height="220.833" fill="#DDE9BE" stroke="#494338" stroke-width="4"/>
<rect x="564.084" y="788.917" width="333.25" height="108.417" fill="#DDE9BE" stroke="#494338" stroke-width="4"/>
<rect x="451.667" y="451.667" width="333.25" height="108.417" fill="#DDE9BE" stroke="#494338" stroke-width="4"/>
<rect x="897.334" y="451.667" width="333.25" height="108.417" transform="rotate(90 897.334 451.667)" fill="#DDE9BE" stroke="#494338" stroke-width="4"/>
<rect x="560.084" y="564.083" width="333.25" height="108.417" transform="rotate(90 560.084 564.083)" fill="#DDE9BE" stroke="#494338" stroke-width="4"/>
<rect x="564.084" y="114.417" width="220.833" height="220.833" fill="#DDE9BE" stroke="#494338" stroke-width="4"/>
<rect x="564.084" y="339.25" width="333.25" height="108.417" fill="#DDE9BE" stroke="#494338" stroke-width="4"/>
<rect x="451.667" y="2" width="333.25" height="108.417" fill="#DDE9BE" stroke="#494338" stroke-width="4"/>
<rect x="897.334" y="2" width="333.25" height="108.417" transform="rotate(90 897.334 2)" fill="#DDE9BE" stroke="#494338" stroke-width="4"/>
<rect x="560.084" y="114.417" width="333.25" height="108.417" transform="rotate(90 560.084 114.417)" fill="#DDE9BE" stroke="#494338" stroke-width="4"/>
<rect x="114.417" y="1013.75" width="220.833" height="220.833" fill="#DDE9BE" stroke="#494338" stroke-width="4"/>
<rect x="114.417" y="1238.58" width="333.25" height="108.417" fill="#DDE9BE" stroke="#494338" stroke-width="4"/>
<rect x="2" y="901.333" width="333.25" height="108.417" fill="#DDE9BE" stroke="#494338" stroke-width="4"/>
<rect x="447.667" y="901.333" width="333.25" height="108.417" transform="rotate(90 447.667 901.333)" fill="#DDE9BE" stroke="#494338" stroke-width="4"/>
<rect x="110.417" y="1013.75" width="333.25" height="108.417" transform="rotate(90 110.417 1013.75)" fill="#DDE9BE" stroke="#494338" stroke-width="4"/>
<rect x="114.417" y="564.083" width="220.833" height="220.833" fill="#DDE9BE" stroke="#494338" stroke-width="4"/>
<rect x="114.417" y="788.917" width="333.25" height="108.417" fill="#DDE9BE" stroke="#494338" stroke-width="4"/>
<rect x="2" y="451.667" width="333.25" height="108.417" fill="#DDE9BE" stroke="#494338" stroke-width="4"/>
<rect x="447.667" y="451.667" width="333.25" height="108.417" transform="rotate(90 447.667 451.667)" fill="#DDE9BE" stroke="#494338" stroke-width="4"/>
<rect x="110.417" y="564.083" width="333.25" height="108.417" transform="rotate(90 110.417 564.083)" fill="#DDE9BE" stroke="#494338" stroke-width="4"/>
<g filter="url(#filter0_d_112_2)">
<mask id="path-89-inside-1_112_2" fill="white">
<path d="M413 247H1953V1103H413V247Z"/>
</mask>
<path d="M413 247H1953V1103H413V247Z" fill="#C29A59"/>
<path d="M1953 247H1958V242H1953V247ZM413 247V252H1953V247V242H413V247ZM1953 247H1948V1103H1953H1958V247H1953Z" fill="#896D41" mask="url(#path-89-inside-1_112_2)"/>
</g>
</g>
<defs>
<filter id="filter0_d_112_2" x="399" y="247" width="1554" height="880" filterUnits="userSpaceOnUse" color-interpolation-filters="sRGB">
<feFlood flood-opacity="0" result="BackgroundImageFix"/>
<feColorMatrix in="SourceAlpha" type="matrix" values="0 0 0 0 0 0 0 0 0 0 0 0 0 0 0 0 0 0 127 0" result="hardAlpha"/>
<feOffset dx="-10" dy="20"/>
<feGaussianBlur stdDeviation="2"/>
<feComposite in2="hardAlpha" operator="out"/>
<feColorMatrix type="matrix" values="0 0 0 0 0 0 0 0 0 0 0 0 0 0 0 0 0 0 0.35 0"/>
<feBlend mode="luminosity" in2="BackgroundImageFix" result="effect1_dropShadow_112_2"/>
<feBlend mode="normal" in="SourceGraphic" in2="effect1_dropShadow_112_2" result="shape"/>
</filter>
<clipPath id="clip0_112_2">
<rect width="2366" height="1349" fill="white"/>
</clipPath>
</defs>
</svg>
